<svg xmlns="http://www.w3.org/2000/svg" width="1100" height="620" viewBox="0 0 1100 620" role="img" aria-labelledby="title desc">
<title id="title">000001.SZ daily close price</title>
<desc id="desc">Daily close price line chart from 2025-06-30 to 2026-06-29, based on data/raw/akshare/000001_SZ_daily_20250629_20260629.csv.</desc>
<rect width="100%" height="100%" fill="#ffffff"/>
<style>text{font-family:Arial, Helvetica, sans-serif; fill:#243042;} .muted{fill:#65758b;} .grid{stroke:#d9e1ea; stroke-width:1;} .axis{stroke:#526174; stroke-width:1.4;} .line{fill:none; stroke:#126f83; stroke-width:3; stroke-linejoin:round; stroke-linecap:round;} .marker{fill:#f05a28; stroke:white; stroke-width:2;} .label-bg{fill:white; stroke:#d9e1ea; stroke-width:1; rx:4;} </style>
<text x="86" y="36" font-size="25" font-weight="700">000001.SZ Daily Close Price</text>
<text x="86" y="58" font-size="13" class="muted">2025-06-30 to 2026-06-29 | 242 trading days | Source: akshare.stock_zh_a_hist</text>
<line x1="86" x2="1056" y1="522.00" y2="522.00" class="grid"/>
<text x="74" y="526.00" font-size="12" text-anchor="end" class="muted">9.99</text>
<line x1="86" x2="1056" y1="431.60" y2="431.60" class="grid"/>
<text x="74" y="435.60" font-size="12" text-anchor="end" class="muted">10.68</text>
<line x1="86" x2="1056" y1="341.20" y2="341.20" class="grid"/>
<text x="74" y="345.20" font-size="12" text-anchor="end" class="muted">11.36</text>
<line x1="86" x2="1056" y1="250.80" y2="250.80" class="grid"/>
<text x="74" y="254.80" font-size="12" text-anchor="end" class="muted">12.05</text>
<line x1="86" x2="1056" y1="160.40" y2="160.40" class="grid"/>
<text x="74" y="164.40" font-size="12" text-anchor="end" class="muted">12.73</text>
<line x1="86" x2="1056" y1="70.00" y2="70.00" class="grid"/>
<text x="74" y="74.00" font-size="12" text-anchor="end" class="muted">13.42</text>
<line x1="86" x2="86" y1="70" y2="522" class="axis"/>
<line x1="86" x2="1056" y1="522" y2="522" class="axis"/>
<line x1="86.00" x2="86.00" y1="522" y2="528" stroke="#526174"/>
<text x="86.00" y="546" font-size="12" text-anchor="middle" class="muted">2025-06</text>
<line x1="182.60" x2="182.60" y1="522" y2="528" stroke="#526174"/>
<text x="182.60" y="546" font-size="12" text-anchor="middle" class="muted">2025-08</text>
<line x1="355.67" x2="355.67" y1="522" y2="528" stroke="#526174"/>
<text x="355.67" y="546" font-size="12" text-anchor="middle" class="muted">2025-10</text>
<line x1="504.59" x2="504.59" y1="522" y2="528" stroke="#526174"/>
<text x="504.59" y="546" font-size="12" text-anchor="middle" class="muted">2025-12</text>
<line x1="677.66" x2="677.66" y1="522" y2="528" stroke="#526174"/>
<text x="677.66" y="546" font-size="12" text-anchor="middle" class="muted">2026-02</text>
<line x1="822.56" x2="822.56" y1="522" y2="528" stroke="#526174"/>
<text x="822.56" y="546" font-size="12" text-anchor="middle" class="muted">2026-04</text>
<line x1="979.53" x2="979.53" y1="522" y2="528" stroke="#526174"/>
<text x="979.53" y="546" font-size="12" text-anchor="middle" class="muted">2026-06</text>
<line x1="1056.00" x2="1056.00" y1="522" y2="528" stroke="#526174"/>
<text x="1056.00" y="546" font-size="12" text-anchor="middle" class="muted">2026-06-29</text>
<polyline points="86.00,247.79 90.02,217.41 94.05,214.77 98.07,210.80 102.10,177.78 106.12,154.01 110.15,165.89 114.17,146.08 118.20,101.17 122.22,136.84 126.25,127.59 130.27,160.61 134.30,172.50 138.32,179.10 142.35,164.57 146.37,176.46 150.40,192.31 154.42,187.03 158.45,210.80 162.47,210.80 166.50,196.27 170.52,212.13 174.55,192.31 178.57,226.65 182.60,220.05 186.62,217.41 190.65,194.95 194.67,196.27 198.70,194.95 202.72,204.20 206.75,217.41 210.77,213.45 214.80,222.69 218.82,230.62 222.85,246.47 226.87,246.47 230.90,249.11 234.92,247.79 238.95,237.22 242.97,249.11 247.00,197.60 251.02,209.48 255.05,249.11 259.07,246.47 263.10,250.43 267.12,271.56 271.15,259.68 275.17,290.06 279.20,291.38 283.22,294.02 287.24,296.66 291.27,290.06 295.29,287.41 299.32,276.85 303.34,294.02 307.37,303.26 311.39,304.59 315.42,304.59 319.44,334.97 323.47,329.68 327.49,338.93 331.52,320.44 335.54,328.36 339.57,336.29 343.59,336.29 347.62,340.25 351.64,344.21 355.67,336.29 359.69,332.32 363.72,336.29 367.74,313.83 371.77,336.29 375.79,317.79 379.82,336.29 383.84,333.64 387.87,332.32 391.89,320.44 395.92,305.91 399.94,315.15 403.97,320.44 407.99,327.04 412.02,337.61 416.04,338.93 420.07,346.85 424.09,332.32 428.12,311.19 432.14,320.44 436.17,321.76 440.19,316.47 444.22,305.91 448.24,300.62 452.27,299.30 456.29,296.66 460.32,290.06 464.34,300.62 468.37,311.19 472.39,283.45 476.41,276.85 480.44,297.98 484.46,309.87 488.49,283.45 492.51,297.98 496.54,295.34 500.56,308.55 504.59,297.98 508.61,304.59 512.64,316.47 516.66,324.40 520.69,319.12 524.71,320.44 528.74,332.32 532.76,345.53 536.79,340.25 540.81,342.89 544.84,321.76 548.86,325.72 552.89,319.12 556.91,304.59 560.94,307.23 564.96,320.44 568.99,315.15 573.01,317.79 577.04,315.15 581.06,317.79 585.09,315.15 589.11,325.72 593.14,334.97 597.16,323.08 601.19,300.62 605.21,304.59 609.24,321.76 613.26,328.36 617.29,325.72 621.31,327.04 625.34,341.57 629.36,348.17 633.39,364.02 637.41,373.27 641.44,367.99 645.46,379.87 649.49,379.87 653.51,390.44 657.54,394.40 661.56,397.05 665.59,410.25 669.61,394.40 673.63,411.58 677.66,407.61 681.68,410.25 685.71,393.08 689.73,377.23 693.76,382.52 697.78,379.87 701.81,381.20 705.83,379.87 709.86,394.40 713.88,401.01 717.91,401.01 721.93,407.61 725.96,406.29 729.98,402.33 734.01,408.93 738.03,404.97 742.06,427.43 746.08,414.22 750.11,412.90 754.13,420.82 758.16,414.22 762.18,403.65 766.21,397.05 770.23,398.37 774.26,399.69 778.28,385.16 782.31,394.40 786.33,404.97 790.36,419.50 794.38,461.77 798.41,404.97 802.43,397.05 806.46,397.05 810.48,386.48 814.51,390.44 818.53,378.55 822.56,369.31 826.58,353.46 830.61,373.27 834.63,385.16 838.66,360.06 842.68,375.91 846.71,377.23 850.73,379.87 854.76,366.67 858.78,361.38 862.80,377.23 866.83,387.80 870.85,381.20 874.88,378.55 878.90,391.76 882.93,389.12 886.95,389.12 890.98,338.93 895.00,328.36 899.03,320.44 903.05,324.40 907.08,341.57 911.10,340.25 915.13,349.50 919.15,352.14 923.18,356.10 927.20,370.63 931.23,382.52 935.25,390.44 939.28,407.61 943.30,407.61 947.33,419.50 951.35,428.75 955.38,431.39 959.40,431.39 963.43,416.86 967.45,420.82 971.48,434.03 975.50,398.37 979.53,390.44 983.55,378.55 987.58,390.44 991.60,412.90 995.63,391.76 999.65,385.16 1003.68,371.95 1007.70,346.85 1011.73,349.50 1015.75,357.42 1019.78,381.20 1023.80,397.05 1027.83,418.18 1031.85,452.52 1035.88,435.35 1039.90,427.43 1043.93,453.84 1047.95,465.73 1051.98,490.83 1056.00,489.51" class="line"/>
<circle cx="118.20" cy="101.17" r="5" class="marker"/>
<line x1="118.20" y1="101.17" x2="90.00" y2="90.00" stroke="#a5b4c3" stroke-width="1"/>
<rect x="90.00" y="74.00" width="168" height="28" class="label-bg"/>
<text x="98.00" y="92.00" font-size="12" font-weight="600">High: 13.18 (2025-07-10)</text>
<circle cx="1051.98" cy="490.83" r="5" class="marker"/>
<line x1="1051.98" y1="490.83" x2="887.00" y2="500.00" stroke="#a5b4c3" stroke-width="1"/>
<rect x="887.00" y="484.00" width="161" height="28" class="label-bg"/>
<text x="895.00" y="502.00" font-size="12" font-weight="600">Low: 10.23 (2026-06-26)</text>
<circle cx="1056.00" cy="489.51" r="5" class="marker"/>
<line x1="1056.00" y1="489.51" x2="846.00" y2="487.51" stroke="#a5b4c3" stroke-width="1"/>
<rect x="846.00" y="471.51" width="182" height="28" class="label-bg"/>
<text x="854.00" y="489.51" font-size="12" font-weight="600">Latest: 10.24 (2026-06-29)</text>
<text x="86" y="596" font-size="12" class="muted">Close price column from data/raw/akshare/000001_SZ_daily_20250629_20260629.csv</text>
</svg>